<svg width="288" height="318" viewBox="0 0 288 318" fill="none" xmlns="http://www.w3.org/2000/svg">
<path d="M7.50511 305.807L193.388 3.80662C194.844 1.44098 197.423 0 200.201 0L279.811 0C284.229 0 287.811 3.58171 287.811 7.99999V310.001C287.811 314.419 284.229 318.001 279.811 318.001H14.318C8.05912 318.001 4.22437 311.137 7.50511 305.807Z" fill="#F3F2EF"/>
<path d="M91.002 305.819L220.113 95.3943C221.568 93.0232 224.15 91.5781 226.932 91.5781H279.812C284.23 91.5781 287.812 95.1599 287.812 99.5781V310.003C287.812 314.421 284.23 318.003 279.812 318.003H97.8208C91.567 318.003 87.7314 311.149 91.002 305.819Z" fill="#14182A"/>
<path d="M173.528 305.814L246.512 186.966C247.968 184.596 250.549 183.152 253.33 183.152H279.811C284.229 183.152 287.811 186.734 287.811 191.152V310.001C287.811 314.419 284.229 318.001 279.811 318.001H180.346C174.09 318.001 170.255 311.145 173.528 305.814Z" fill="#1451CE"/>
<path d="M237.952 305.808L267.117 258.409C268.573 256.043 271.152 254.602 273.93 254.602H279.811C284.229 254.602 287.811 258.183 287.811 262.602V318H244.766C238.507 318 234.673 311.138 237.952 305.808Z" fill="#FF8C00"/>
</svg>
