<svg width="130" height="130" viewBox="0 0 130 130" fill="none" xmlns="http://www.w3.org/2000/svg">
<rect x="2" y="2" width="126" height="126" rx="14" stroke="#14182A" stroke-width="4"></rect>
<path d="M36.133 103.5C35.7979 103.5 35.4758 103.366 35.2388 103.128C35.0009 102.889 34.8685 102.566 34.8685 102.229V90.9638C34.8685 85.527 23 85.3002 23 83.2613C23 81.4493 48.8394 77.3708 48.8394 75.2564C48.8394 73.142 34.8685 73.2932 34.8685 67.3715V31.2635C34.8685 30.6702 35.2772 30.155 35.8535 30.0235C38.9089 29.3266 48.1985 27.2081 51.164 26.5317C51.71 26.4068 52.2732 26.6583 52.547 27.1489C55.5763 32.5693 72.4685 62.7958 72.4685 62.7958C72.4685 62.7958 75.2043 70.6627 91.5047 75.2564C94.2839 76.0396 81.4083 72.8404 81.4083 67.3715V31.2052C81.4083 30.639 81.7819 30.1402 82.323 29.9832C84.5871 29.3274 90.4773 27.6206 93.3447 26.7898C93.7264 26.6788 94.1375 26.7553 94.4555 26.9952C94.7727 27.2352 94.9598 27.6116 94.9598 28.0118V67.3715C94.9598 73.0664 107 73.2932 107 75.2564C107 77.2196 72.4734 81.3737 72.4685 83.2613C72.4628 85.324 94.9729 84.8219 94.9598 90.9638C94.9541 93.5615 94.9574 99.5908 94.959 102.228C94.959 102.565 94.8258 102.889 94.5887 103.127C94.3517 103.366 94.0296 103.5 93.6937 103.5H82.8232C82.3614 103.5 81.9372 103.248 81.7148 102.841C80.3032 100.257 75.2247 90.9638 75.2247 90.9638C71.9748 85.3051 59.1475 85.6576 59.1475 83.2613C59.1475 81.5249 81.4083 77.4465 81.4083 75.2564C81.4083 73.0664 65.5983 73.2932 62.332 67.3715C57.4285 58.4799 49.8636 44.5533 49.8636 44.5533H47.8634C48.0857 48.0581 48.1969 50.8546 48.1969 52.9428C48.2713 55.0301 48.3081 56.9317 48.3081 58.6467V67.3715C48.3081 73.0664 62.2797 73.2176 62.2797 75.2564C62.2797 77.2952 36.4404 81.3737 36.4404 83.2613C36.4404 85.1489 48.3081 85.2246 48.3081 90.9638V102.229C48.3081 102.566 48.1748 102.889 47.9378 103.128C47.7007 103.366 47.3787 103.5 47.0436 103.5H36.133Z" fill="#14182A"></path>
</svg>