<svg width="641" height="95" viewBox="0 0 641 95" fill="none" xmlns="http://www.w3.org/2000/svg">
<g clip-path="url(#clip0_683_62)">
<path d="M132.503 94.912C122.092 94.912 113.985 91.84 108.183 85.696C104.454 81.748 102 75.5 100.591 69.63C98.6103 61.379 116.48 63.687 116.48 59.63C116.48 55.147 99.1243 56.5 100.229 50.13C101.433 43.194 104.084 37.556 108.183 33.216C113.985 27.072 122.092 24 132.503 24C142.657 24 150.508 26.859 156.055 32.576C161.687 38.208 164.503 46.315 164.503 56.896V60.9C164.503 61.728 163.831 62.4 163.003 62.4C154.576 62.4 113.5 62.4 113.5 62.4C117.5 61 119.353 60.578 115.5 52.13L158.999 52.16L149.143 58.688V55.744C149.143 48.832 147.777 43.797 145.047 40.64C142.401 37.397 138.22 35.776 132.503 35.776C126.785 35.776 122.604 37.397 119.959 40.64C117.744 43.283 116.457 47.241 116.096 52.515C116.085 52.672 116.075 52.834 116.066 53C119.496 56.103 118.5 59.82 116 62.5C116 69.327 117.313 74.645 119.959 77.888C122.604 81.131 126.785 82.752 132.503 82.752C136.087 82.752 138.903 82.283 140.951 81.344C143.084 80.32 144.577 79.168 145.431 77.888C146.055 77.036 146.403 76.287 146.596 75.716C146.755 75.061 147.341 74.6 148.015 74.6C150.699 74.56 157.301 74.56 160.666 74.56C161.152 74.56 161.608 74.795 161.89 75.191C162.171 75.587 162.244 76.095 162.084 76.554C160.082 82.156 156.753 86.527 152.087 89.664C146.967 93.163 140.439 94.912 132.503 94.912Z" fill="#0E1224"></path>
<path d="M192.615 93.0004C191.952 93.0004 191.367 92.5644 191.178 91.9284C188.871 84.1804 174.753 36.7674 171.719 26.5764C171.584 26.1224 171.671 25.6314 171.954 25.2514C172.237 24.8724 172.683 24.6484 173.157 24.6484C176.475 24.6484 182.989 24.6484 185.619 24.6484C186.294 24.6484 186.885 25.0984 187.065 25.7484C189.083 33.0474 200.457 74.1844 200.457 74.1844H202.633C202.633 74.1844 215.33 32.8904 217.539 25.7074C217.733 25.0784 218.314 24.6484 218.973 24.6484C221.416 24.6484 227.242 24.6484 229.685 24.6484C230.344 24.6484 230.925 25.0784 231.119 25.7074C233.328 32.8904 246.025 74.1844 246.025 74.1844H248.201C248.201 74.1844 259.575 33.0474 261.593 25.7484C261.773 25.0984 262.364 24.6484 263.039 24.6484C265.569 24.6484 271.675 24.6484 274.861 24.6484C275.335 24.6484 275.781 24.8724 276.064 25.2514C276.347 25.6314 276.434 26.1224 276.299 26.5764C273.265 36.7674 259.147 84.1804 256.84 91.9284C256.651 92.5644 256.066 93.0004 255.403 93.0004C252.258 93.0004 243.366 93.0004 240.227 93.0004C239.566 93.0004 238.982 92.5674 238.791 91.9334C236.702 85.0164 225.161 46.7924 225.161 46.7924H222.985C222.985 46.7924 211.334 85.0304 209.229 91.9374C209.036 92.5684 208.454 93.0004 207.794 93.0004C204.658 93.0004 195.761 93.0004 192.615 93.0004Z" fill="#0E1224"></path>
<path d="M313.55 94.2831C304.846 94.2831 298.062 92.6621 293.198 89.4191C288.782 86.4751 285.702 81.9471 283.959 75.8371C283.832 75.3871 283.922 74.9041 284.204 74.5311C284.486 74.1581 284.927 73.9391 285.394 73.9391C288.63 73.9311 295.074 73.9311 297.81 73.9311C298.526 73.9311 299.142 74.4371 299.281 75.1391C299.42 75.9231 299.741 76.9621 300.366 77.8991C301.219 79.0941 302.67 80.1601 304.718 81.0991C306.851 82.0381 309.795 82.5071 313.55 82.5071C318.073 82.5071 321.571 81.8241 324.046 80.4591C326.606 79.0081 327.886 76.8751 327.886 74.0591C327.886 72.0111 327.118 70.4321 325.582 69.3231C324.132 68.2141 321.614 67.2751 318.03 66.5071L303.31 63.5631C296.483 62.1121 291.491 59.9361 288.334 57.0351C285.177 54.0481 283.598 49.9951 283.598 44.8751C283.598 37.9631 286.158 32.6721 291.278 29.0031C296.398 25.2481 303.694 23.3711 313.166 23.3711C321.785 23.3711 328.483 24.9921 333.262 28.2351C337.678 31.1791 340.759 35.7071 342.501 41.8171C342.629 42.2671 342.538 42.7501 342.256 43.1231C341.974 43.4961 341.533 43.7151 341.066 43.7151C337.803 43.7231 331.27 43.7231 328.516 43.7231C327.806 43.7231 327.192 43.2231 327.048 42.5271C326.913 41.7601 326.592 40.7581 325.966 39.8831C325.198 38.6031 323.79 37.4941 321.742 36.5551C319.694 35.6161 316.835 35.1471 313.166 35.1471C308.729 35.1471 305.273 35.8721 302.798 37.3231C300.409 38.6881 299.214 40.7791 299.214 43.5951C299.214 45.6431 299.939 47.2221 301.39 48.3311C302.926 49.4401 305.443 50.3791 308.942 51.1471L323.662 54.0911C330.489 55.4561 335.481 57.6321 338.638 60.6191C341.881 63.5201 343.502 67.5741 343.502 72.7791C343.502 79.6061 340.9 84.8961 335.694 88.6511C330.574 92.4061 323.193 94.2831 313.55 94.2831Z" fill="#0E1224"></path>
<path d="M360.715 93.0036C359.887 93.0036 359.215 92.3316 359.215 91.5036C359.215 80.8566 359.215 16.8306 359.215 6.18359C359.215 5.35559 359.887 4.68359 360.715 4.68359C363.744 4.68359 370.558 4.68359 373.587 4.68359C374.415 4.68359 375.087 5.35559 375.087 6.18359C375.087 16.8016 375.087 80.2036 375.087 80.2036H418.387C418.785 80.2036 419.166 80.3616 419.448 80.6426C419.729 80.9246 419.887 81.3056 419.887 81.7036C419.887 84.1666 419.887 89.0406 419.887 91.5036C419.887 91.9016 419.729 92.2826 419.448 92.5646C419.166 92.8456 418.785 93.0036 418.387 93.0036C410.01 93.0036 369.092 93.0036 360.715 93.0036Z" fill="#1451CE"></path>
<path d="M449.852 94.2831C443.025 94.2831 437.649 92.5761 433.724 89.1631C429.798 85.6641 427.836 80.8861 427.836 74.8271C427.836 68.6831 429.926 63.8621 434.108 60.3631C438.374 56.8641 444.518 54.7311 452.54 53.9631L471.484 52.0431V62.1551L457.148 63.5631C452.454 63.9901 449.041 64.9281 446.908 66.3791C444.86 67.8301 443.836 69.9631 443.836 72.7791V73.8031C443.836 76.5341 444.945 78.6671 447.164 80.2031C449.382 81.7391 452.497 82.5071 456.508 82.5071C466.492 82.5071 471.484 78.3681 471.484 70.0911V49.7391C471.484 44.7901 470.417 41.2061 468.284 38.9871C466.236 36.6831 462.95 35.5311 458.428 35.5311C455.441 35.5311 453.009 35.9581 451.132 36.8111C449.254 37.6641 447.889 38.6881 447.036 39.8831C446.41 40.7581 446.089 41.7601 445.925 42.5211C445.784 43.2041 445.182 43.6931 444.486 43.6931C441.715 43.7231 435.114 43.7231 431.822 43.7231C431.35 43.7231 430.906 43.5021 430.622 43.1251C430.339 42.7481 430.249 42.2591 430.38 41.8061C433.986 29.5171 443.461 23.3711 458.812 23.3711C468.028 23.3711 475.025 25.5901 479.804 30.0271C484.582 34.3791 486.972 40.8221 486.972 49.3551V91.5031C486.972 92.3311 486.3 93.0031 485.472 93.0031H474.264C473.436 93.0031 472.764 92.3311 472.764 91.5031C472.764 88.4641 472.764 81.8671 472.764 81.8671H470.588C468.881 85.8781 466.321 88.9501 462.908 91.0831C459.58 93.2161 455.228 94.2831 449.852 94.2831Z" fill="#1451CE"></path>
<path d="M542.439 94.2819C537.404 94.2819 533.094 93.0869 529.51 90.6979C526.011 88.3089 523.324 85.0229 521.447 80.8419H519.271V91.5019C519.271 92.3299 518.599 93.0019 517.771 93.0019C515.041 93.0019 509.293 93.0019 506.562 93.0019C505.734 93.0019 505.062 92.3299 505.062 91.5019C505.062 80.5509 505.062 13.0369 505.062 2.08594C505.062 1.68794 505.221 1.30694 505.502 1.02494C505.784 0.743937 506.164 0.585938 506.562 0.585938C509.523 0.585938 516.09 0.585938 519.051 0.585938C519.449 0.585938 519.83 0.743937 520.112 1.02494C520.393 1.30694 520.551 1.68794 520.551 2.08594C520.551 6.78994 520.551 20.9379 520.551 20.9379C520.551 22.9009 520.507 25.0339 520.422 27.3379C520.422 29.5569 520.337 32.3729 520.167 35.7859H522.343C524.049 31.7749 526.567 28.7029 529.895 26.5699C533.308 24.4369 537.489 23.3699 542.439 23.3699C550.801 23.3699 557.415 26.5269 562.279 32.8419C567.228 39.0709 569.703 47.7329 569.703 58.8259C569.703 66.1649 568.593 72.4789 566.375 77.7699C564.156 83.0609 560.999 87.1569 556.903 90.0579C552.807 92.8739 547.985 94.2819 542.439 94.2819ZM537.062 82.1219C542.609 82.1219 546.705 80.5429 549.351 77.3859C551.996 74.1429 553.318 69.1089 553.318 62.2819V55.3699C553.318 48.5429 551.996 43.5509 549.351 40.3939C546.705 37.1509 542.609 35.5299 537.062 35.5299C531.431 35.5299 527.248 37.1509 524.518 40.3939C521.872 43.5509 520.551 48.5429 520.551 55.3699V62.2819C520.551 69.1089 521.872 74.1429 524.518 77.3859C527.248 80.5429 531.431 82.1219 537.062 82.1219Z" fill="#1451CE"></path>
<path d="M610.675 94.2831C601.971 94.2831 595.187 92.6621 590.323 89.4191C585.906 86.4751 582.826 81.9471 581.084 75.8371C580.956 75.3871 581.047 74.9041 581.329 74.5311C581.611 74.1581 582.052 73.9391 582.519 73.9391C585.754 73.9311 592.199 73.9311 594.935 73.9311C595.651 73.9311 596.267 74.4371 596.406 75.1391C596.545 75.9241 596.866 76.9621 597.491 77.8991C598.344 79.0941 599.795 80.1601 601.843 81.0991C603.976 82.0381 606.92 82.5071 610.675 82.5071C615.197 82.5071 618.696 81.8241 621.171 80.4591C623.731 79.0081 625.011 76.8751 625.011 74.0591C625.011 72.0111 624.243 70.4321 622.707 69.3231C621.256 68.2141 618.739 67.2751 615.155 66.5071L600.435 63.5631C593.608 62.1121 588.616 59.9361 585.459 57.0351C582.301 54.0481 580.723 49.9951 580.723 44.8751C580.723 37.9631 583.283 32.6721 588.403 29.0031C593.523 25.2481 600.819 23.3711 610.291 23.3711C618.909 23.3711 625.608 24.9921 630.387 28.2351C634.803 31.1791 637.883 35.7071 639.626 41.8171C639.753 42.2661 639.663 42.7501 639.381 43.1231C639.099 43.4961 638.658 43.7151 638.191 43.7151C634.927 43.7231 628.395 43.7231 625.641 43.7231C624.93 43.7231 624.317 43.2241 624.173 42.5281C624.037 41.7611 623.716 40.7581 623.091 39.8831C622.323 38.6031 620.915 37.4941 618.867 36.5551C616.819 35.6161 613.96 35.1471 610.291 35.1471C605.853 35.1471 602.397 35.8721 599.923 37.3231C597.533 38.6881 596.339 40.7791 596.339 43.5951C596.339 45.6431 597.064 47.2221 598.515 48.3311C600.051 49.4401 602.568 50.3791 606.067 51.1471L620.787 54.0911C627.613 55.4561 632.605 57.6321 635.763 60.6191C639.005 63.5201 640.627 67.5741 640.627 72.7791C640.627 79.6061 638.024 84.8961 632.819 88.6511C627.699 92.4061 620.317 94.2831 610.675 94.2831Z" fill="#1451CE"></path>
<path d="M16.067 93.6996C15.657 93.6996 15.263 93.5366 14.973 93.2466C14.682 92.9566 14.52 92.5626 14.52 92.1526V78.4446C14.52 71.8286 0 71.5526 0 69.0716C0 66.8666 31.612 61.9036 31.612 59.3306C31.612 56.7576 14.52 56.9416 14.52 49.7356V5.79663C14.52 5.07463 15.02 4.44763 15.725 4.28763C19.463 3.43963 30.828 0.861634 34.456 0.038634C35.124 -0.113366 35.813 0.192634 36.148 0.789634C39.854 7.38563 60.52 44.1676 60.52 44.1676C60.52 44.1676 63.867 53.7406 83.809 59.3306C87.209 60.2836 71.457 56.3906 71.457 49.7356V5.72563C71.457 5.03663 71.914 4.42963 72.576 4.23863C75.346 3.44063 82.552 1.36363 86.06 0.352634C86.527 0.217634 87.03 0.310634 87.419 0.602634C87.807 0.894634 88.036 1.35263 88.036 1.83963V49.7356C88.036 56.6656 102.766 56.9416 102.766 59.3306C102.766 61.7196 60.526 66.7746 60.52 69.0716C60.513 71.5816 88.052 70.9706 88.036 78.4446C88.029 81.6056 88.033 88.9426 88.035 92.1516C88.035 92.5616 87.872 92.9556 87.582 93.2456C87.292 93.5366 86.898 93.6996 86.487 93.6996H73.188C72.623 93.6996 72.104 93.3926 71.832 92.8976C70.105 89.7536 63.892 78.4446 63.892 78.4446C59.916 71.5586 44.223 71.9876 44.223 69.0716C44.223 66.9586 71.457 61.9956 71.457 59.3306C71.457 56.6656 52.115 56.9416 48.119 49.7356C42.12 38.9156 32.865 21.9686 32.865 21.9686H30.418C30.69 26.2336 30.826 29.6366 30.826 32.1776C30.917 34.7176 30.962 37.0316 30.962 39.1186V49.7356C30.962 56.6656 48.055 56.8496 48.055 59.3306C48.055 61.8116 16.443 66.7746 16.443 69.0716C16.443 71.3686 30.962 71.4606 30.962 78.4446V92.1526C30.962 92.5626 30.799 92.9566 30.509 93.2466C30.219 93.5366 29.825 93.6996 29.415 93.6996H16.067Z" fill="#0E1224"></path>
</g>
<defs>
<clipPath id="clip0_683_62">
<rect width="641" height="95" fill="white"></rect>
</clipPath>
</defs>
</svg>