<svg width="639" height="95" viewBox="0 0 639 95" fill="none" xmlns="http://www.w3.org/2000/svg">
<g clip-path="url(#clip0_683_119)">
<path d="M132.09 94.912C121.711 94.912 113.63 91.84 107.846 85.696C104.128 81.748 101.682 75.5 100.278 69.63C98.3027 61.379 116.117 63.687 116.117 59.63C116.117 55.147 98.8151 56.5 99.9167 50.13C101.117 43.194 103.76 37.556 107.846 33.216C113.63 27.072 121.711 24 132.09 24C142.212 24 150.039 26.859 155.568 32.576C161.183 38.208 163.99 46.315 163.99 56.896V60.9C163.99 61.728 163.32 62.4 162.495 62.4C154.094 62.4 113.146 62.4 113.146 62.4C117.134 61 118.981 60.578 115.14 52.13L158.503 52.16L148.678 58.688V55.744C148.678 48.832 147.316 43.797 144.595 40.64C141.957 37.397 137.789 35.776 132.09 35.776C126.39 35.776 122.222 37.397 119.585 40.64C117.377 43.283 116.094 47.241 115.734 52.515C115.723 52.672 115.713 52.834 115.704 53C119.124 56.103 118.131 59.82 115.638 62.5C115.638 69.327 116.947 74.645 119.585 77.888C122.222 81.131 126.39 82.752 132.09 82.752C135.663 82.752 138.47 82.283 140.512 81.344C142.638 80.32 144.126 79.168 144.978 77.888C145.6 77.036 145.947 76.287 146.139 75.716C146.297 75.061 146.882 74.6 147.554 74.6C150.229 74.56 156.811 74.56 160.165 74.56C160.65 74.56 161.104 74.795 161.385 75.191C161.665 75.587 161.738 76.095 161.579 76.554C159.583 82.156 156.264 86.527 151.613 89.664C146.509 93.163 140.001 94.912 132.09 94.912Z" fill="#F9F7F4"></path>
<path d="M192.014 93.0004C191.353 93.0004 190.77 92.5644 190.582 91.9284C188.282 84.1804 174.208 36.7674 171.183 26.5764C171.049 26.1224 171.135 25.6314 171.417 25.2514C171.7 24.8724 172.144 24.6484 172.617 24.6484C175.924 24.6484 182.418 24.6484 185.04 24.6484C185.713 24.6484 186.302 25.0984 186.481 25.7484C188.493 33.0474 199.832 74.1844 199.832 74.1844H202.001C202.001 74.1844 214.658 32.8904 216.86 25.7074C217.054 25.0784 217.633 24.6484 218.29 24.6484C220.725 24.6484 226.533 24.6484 228.968 24.6484C229.625 24.6484 230.204 25.0784 230.398 25.7074C232.6 32.8904 245.257 74.1844 245.257 74.1844H247.427C247.427 74.1844 258.765 33.0474 260.777 25.7484C260.956 25.0984 261.545 24.6484 262.218 24.6484C264.74 24.6484 270.827 24.6484 274.003 24.6484C274.476 24.6484 274.921 24.8724 275.203 25.2514C275.485 25.6314 275.572 26.1224 275.437 26.5764C272.412 36.7674 258.338 84.1804 256.039 91.9284C255.85 92.5644 255.267 93.0004 254.606 93.0004C251.471 93.0004 242.607 93.0004 239.477 93.0004C238.819 93.0004 238.236 92.5674 238.046 91.9334C235.963 85.0164 224.458 46.7924 224.458 46.7924H222.289C222.289 46.7924 210.675 85.0304 208.576 91.9374C208.384 92.5684 207.804 93.0004 207.146 93.0004C204.019 93.0004 195.15 93.0004 192.014 93.0004Z" fill="#F9F7F4"></path>
<path d="M312.571 94.2831C303.895 94.2831 297.132 92.6621 292.283 89.4191C287.881 86.4751 284.81 81.9471 283.073 75.8371C282.946 75.3871 283.036 74.9041 283.317 74.5311C283.598 74.1581 284.038 73.9391 284.503 73.9391C287.729 73.9311 294.153 73.9311 296.881 73.9311C297.594 73.9311 298.208 74.4371 298.347 75.1391C298.486 75.9231 298.806 76.9621 299.429 77.8991C300.279 79.0941 301.725 80.1601 303.767 81.0991C305.893 82.0381 308.828 82.5071 312.571 82.5071C317.08 82.5071 320.567 81.8241 323.035 80.4591C325.587 79.0081 326.863 76.8751 326.863 74.0591C326.863 72.0111 326.097 70.4321 324.566 69.3231C323.12 68.2141 320.61 67.2751 317.037 66.5071L302.363 63.5631C295.558 62.1121 290.581 59.9361 287.434 57.0351C284.287 54.0481 282.713 49.9951 282.713 44.8751C282.713 37.9631 285.265 32.6721 290.369 29.0031C295.473 25.2481 302.746 23.3711 312.189 23.3711C320.781 23.3711 327.458 24.9921 332.222 28.2351C336.624 31.1791 339.696 35.7071 341.432 41.8171C341.56 42.2671 341.469 42.7501 341.188 43.1231C340.907 43.4961 340.467 43.7151 340.002 43.7151C336.749 43.7231 330.236 43.7231 327.491 43.7231C326.783 43.7231 326.171 43.2231 326.027 42.5271C325.893 41.7601 325.573 40.7581 324.949 39.8831C324.183 38.6031 322.779 37.4941 320.738 36.5551C318.696 35.6161 315.846 35.1471 312.189 35.1471C307.765 35.1471 304.32 35.8721 301.853 37.3231C299.471 38.6881 298.28 40.7791 298.28 43.5951C298.28 45.6431 299.003 47.2221 300.449 48.3311C301.981 49.4401 304.49 50.3791 307.978 51.1471L322.652 54.0911C329.458 55.4561 334.434 57.6321 337.581 60.6191C340.814 63.5201 342.43 67.5741 342.43 72.7791C342.43 79.6061 339.836 84.8961 334.646 88.6511C329.542 92.4061 322.184 94.2831 312.571 94.2831Z" fill="#F9F7F4"></path>
<path d="M359.589 93.0036C358.764 93.0036 358.094 92.3316 358.094 91.5036C358.094 80.8566 358.094 16.8306 358.094 6.18359C358.094 5.35559 358.764 4.68359 359.589 4.68359C362.609 4.68359 369.401 4.68359 372.421 4.68359C373.246 4.68359 373.916 5.35559 373.916 6.18359C373.916 16.8016 373.916 80.2036 373.916 80.2036H417.081C417.478 80.2036 417.858 80.3616 418.139 80.6426C418.419 80.9246 418.576 81.3056 418.576 81.7036C418.576 84.1666 418.576 89.0406 418.576 91.5036C418.576 91.9016 418.419 92.2826 418.139 92.5646C417.858 92.8456 417.478 93.0036 417.081 93.0036C408.73 93.0036 367.94 93.0036 359.589 93.0036Z" fill="#4B65FF"></path>
<path d="M448.448 94.2831C441.643 94.2831 436.283 92.5761 432.371 89.1631C428.457 85.6641 426.501 80.8861 426.501 74.8271C426.501 68.6831 428.584 63.8621 432.753 60.3631C437.006 56.8641 443.131 54.7311 451.128 53.9631L470.013 52.0431V62.1551L455.722 63.5631C451.042 63.9901 447.64 64.9281 445.513 66.3791C443.472 67.8301 442.451 69.9631 442.451 72.7791V73.8031C442.451 76.5341 443.557 78.6671 445.769 80.2031C447.98 81.7391 451.085 82.5071 455.084 82.5071C465.036 82.5071 470.013 78.3681 470.013 70.0911V49.7391C470.013 44.7901 468.949 41.2061 466.823 38.9871C464.781 36.6831 461.505 35.5311 456.998 35.5311C454.02 35.5311 451.595 35.9581 449.724 36.8111C447.852 37.6641 446.491 38.6881 445.641 39.8831C445.017 40.7581 444.697 41.7601 444.534 42.5211C444.393 43.2041 443.793 43.6931 443.099 43.6931C440.337 43.7231 433.756 43.7231 430.475 43.7231C430.004 43.7231 429.561 43.5021 429.278 43.1251C428.996 42.7481 428.906 42.2591 429.037 41.8061C432.632 29.5171 442.077 23.3711 457.38 23.3711C466.568 23.3711 473.543 25.5901 478.307 30.0271C483.07 34.3791 485.452 40.8221 485.452 49.3551V91.5031C485.452 92.3311 484.783 93.0031 483.957 93.0031H472.784C471.959 93.0031 471.289 92.3311 471.289 91.5031C471.289 88.4641 471.289 81.8671 471.289 81.8671H469.12C467.418 85.8781 464.866 88.9501 461.464 91.0831C458.146 93.2161 453.808 94.2831 448.448 94.2831Z" fill="#4B65FF"></path>
<path d="M540.747 94.2819C535.727 94.2819 531.432 93.0869 527.859 90.6979C524.371 88.3089 521.691 85.0229 519.82 80.8419H517.651V91.5019C517.651 92.3299 516.981 93.0019 516.156 93.0019C513.434 93.0019 507.704 93.0019 504.983 93.0019C504.157 93.0019 503.487 92.3299 503.487 91.5019C503.487 80.5509 503.487 13.0369 503.487 2.08594C503.487 1.68794 503.645 1.30694 503.925 1.02494C504.206 0.743937 504.586 0.585938 504.983 0.585938C507.934 0.585938 514.48 0.585938 517.432 0.585938C517.828 0.585938 518.208 0.743937 518.489 1.02494C518.769 1.30694 518.927 1.68794 518.927 2.08594C518.927 6.78994 518.927 20.9379 518.927 20.9379C518.927 22.9009 518.884 25.0339 518.799 27.3379C518.799 29.5569 518.714 32.3729 518.544 35.7859H520.713C522.414 31.7749 524.924 28.7029 528.242 26.5699C531.644 24.4369 535.812 23.3699 540.747 23.3699C549.083 23.3699 555.676 26.5269 560.525 32.8419C565.458 39.0709 567.926 47.7329 567.926 58.8259C567.926 66.1649 566.819 72.4789 564.608 77.7699C562.396 83.0609 559.249 87.1569 555.166 90.0579C551.082 92.8739 546.275 94.2819 540.747 94.2819ZM535.387 82.1219C540.916 82.1219 544.999 80.5429 547.637 77.3859C550.274 74.1429 551.593 69.1089 551.593 62.2819V55.3699C551.593 48.5429 550.274 43.5509 547.637 40.3939C544.999 37.1509 540.916 35.5299 535.387 35.5299C529.773 35.5299 525.604 37.1509 522.883 40.3939C520.245 43.5509 518.927 48.5429 518.927 55.3699V62.2819C518.927 69.1089 520.245 74.1429 522.883 77.3859C525.604 80.5429 529.773 82.1219 535.387 82.1219Z" fill="#4B65FF"></path>
<path d="M608.77 94.2831C600.093 94.2831 593.33 92.6621 588.481 89.4191C584.078 86.4751 581.008 81.9471 579.271 75.8371C579.143 75.3871 579.234 74.9041 579.515 74.5311C579.796 74.1581 580.236 73.9391 580.701 73.9391C583.926 73.9311 590.351 73.9311 593.079 73.9311C593.793 73.9311 594.407 74.4371 594.545 75.1391C594.684 75.9241 595.004 76.9621 595.627 77.8991C596.477 79.0941 597.924 80.1601 599.965 81.0991C602.092 82.0381 605.026 82.5071 608.77 82.5071C613.278 82.5071 616.766 81.8241 619.233 80.4591C621.785 79.0081 623.061 76.8751 623.061 74.0591C623.061 72.0111 622.295 70.4321 620.764 69.3231C619.318 68.2141 616.809 67.2751 613.236 66.5071L598.562 63.5631C591.756 62.1121 586.779 59.9361 583.632 57.0351C580.484 54.0481 578.911 49.9951 578.911 44.8751C578.911 37.9631 581.463 32.6721 586.567 29.0031C591.671 25.2481 598.944 23.3711 608.387 23.3711C616.978 23.3711 623.656 24.9921 628.42 28.2351C632.822 31.1791 635.893 35.7071 637.63 41.8171C637.757 42.2661 637.667 42.7501 637.386 43.1231C637.105 43.4961 636.665 43.7151 636.2 43.7151C632.946 43.7231 626.434 43.7231 623.689 43.7231C622.98 43.7231 622.369 43.2241 622.226 42.5281C622.09 41.7611 621.77 40.7581 621.147 39.8831C620.381 38.6031 618.978 37.4941 616.936 36.5551C614.894 35.6161 612.044 35.1471 608.387 35.1471C603.963 35.1471 600.517 35.8721 598.051 37.3231C595.669 38.6881 594.478 40.7791 594.478 43.5951C594.478 45.6431 595.201 47.2221 596.648 48.3311C598.179 49.4401 600.688 50.3791 604.176 51.1471L618.85 54.0911C625.655 55.4561 630.631 57.6321 633.779 60.6191C637.011 63.5201 638.628 67.5741 638.628 72.7791C638.628 79.6061 636.033 84.8961 630.845 88.6511C625.741 92.4061 618.382 94.2831 608.77 94.2831Z" fill="#4B65FF"></path>
<path d="M16.0169 93.6996C15.6081 93.6996 15.2154 93.5366 14.9263 93.2466C14.6362 92.9566 14.4747 92.5626 14.4747 92.1526V78.4446C14.4747 71.8286 0 71.5526 0 69.0716C0 66.8666 31.5134 61.9036 31.5134 59.3306C31.5134 56.7576 14.4747 56.9416 14.4747 49.7356V5.79663C14.4747 5.07463 14.9731 4.44763 15.6759 4.28763C19.4023 3.43963 30.7318 0.861634 34.3485 0.038634C35.0144 -0.113366 35.7013 0.192634 36.0352 0.789634C39.7296 7.38563 60.3312 44.1676 60.3312 44.1676C60.3312 44.1676 63.6677 53.7406 83.5475 59.3306C86.9369 60.2836 71.234 56.3906 71.234 49.7356V5.72563C71.234 5.03663 71.6896 4.42963 72.3495 4.23863C75.1109 3.44063 82.2944 1.36363 85.7915 0.352634C86.257 0.217634 86.7584 0.310634 87.1462 0.602634C87.533 0.894634 87.7613 1.35263 87.7613 1.83963V49.7356C87.7613 56.6656 102.445 56.9416 102.445 59.3306C102.445 61.7196 60.3371 66.7746 60.3312 69.0716C60.3242 71.5816 87.7773 70.9706 87.7613 78.4446C87.7543 81.6056 87.7583 88.9426 87.7603 92.1516C87.7603 92.5616 87.5978 92.9556 87.3087 93.2456C87.0196 93.5366 86.6269 93.6996 86.2171 93.6996H72.9596C72.3964 93.6996 71.879 93.3926 71.6079 92.8976C69.8863 89.7536 63.6926 78.4446 63.6926 78.4446C59.729 71.5586 44.085 71.9876 44.085 69.0716C44.085 66.9586 71.234 61.9956 71.234 59.3306C71.234 56.6656 51.9524 56.9416 47.9689 49.7356C41.9886 38.9156 32.7625 21.9686 32.7625 21.9686H30.3231C30.5942 26.2336 30.7298 29.6366 30.7298 32.1776C30.8205 34.7176 30.8654 37.0316 30.8654 39.1186V49.7356C30.8654 56.6656 47.9051 56.8496 47.9051 59.3306C47.9051 61.8116 16.3917 66.7746 16.3917 69.0716C16.3917 71.3686 30.8654 71.4606 30.8654 78.4446V92.1526C30.8654 92.5626 30.7029 92.9566 30.4138 93.2466C30.1247 93.5366 29.7319 93.6996 29.3232 93.6996H16.0169Z" fill="#F9F7F4"></path>
</g>
<defs>
<clipPath id="clip0_683_119">
<rect width="639" height="95" fill="white"></rect>
</clipPath>
</defs>
</svg>