<svg width="203" height="156" viewBox="0 0 203 156" fill="none" xmlns="http://www.w3.org/2000/svg">
<mask id="mask0_1168_1354" style="mask-type:luminance" maskUnits="userSpaceOnUse" x="0" y="0" width="203" height="156">
<path d="M166.22 -0.00113596L0 85.0977L36.2664 155.935L202.486 70.8366L166.22 -0.00113596Z" fill="white"/>
<path d="M116.479 83.4648L115.898 83.7548C115.904 83.7638 115.903 83.7718 115.904 83.7728C115.903 83.7718 115.904 83.7648 115.91 83.7518L117.052 83.5128C117.093 83.4178 117.102 83.3258 117.08 83.2418L117.081 83.2408C117.081 83.2388 117.08 83.2378 117.08 83.2378C117.078 83.2378 117.08 83.2348 117.079 83.2338L117.078 83.2308C117.074 83.2128 117.068 83.1928 117.059 83.1758L116.479 83.4648Z" fill="black"/>
<path d="M120.507 76.4468C120.507 76.4478 120.505 76.4488 120.505 76.4488L119.93 76.5948C119.93 76.5948 119.919 76.6038 119.889 76.6188L120.029 76.8918C120.028 76.8928 120.027 76.8928 120.027 76.8928L119.879 76.6218L120.133 77.1868L120.171 77.1668L120.025 76.8928C120.025 76.8928 120.028 76.8928 120.029 76.8918L120.171 77.1668C120.649 76.9218 120.984 76.6058 121.086 76.3008L120.504 76.4468C120.505 76.4498 120.507 76.4488 120.507 76.4468Z" fill="black"/>
<path d="M82.6491 100.49L82.4561 100.53L82.0811 100.599C82.0671 100.62 82.0461 100.646 82.0291 100.671C82.0081 100.7 81.9871 100.729 81.9671 100.758C81.9471 100.786 81.9301 100.813 81.9141 100.837L83.0021 100.702C83.0161 100.679 83.0371 100.653 83.0541 100.629C83.1051 100.561 83.1651 100.478 83.2061 100.393L83.2161 100.371L82.6491 100.49Z" fill="black"/>
<path d="M133.283 94.3409L133.847 94.0249C133.716 93.8449 133.437 93.7779 133.064 93.8379L132.645 94.6259C132.645 94.6259 132.645 94.6269 132.648 94.6259C132.648 94.6259 132.652 94.6249 132.655 94.6249C132.673 94.6229 132.697 94.6249 132.716 94.6549C132.718 94.6559 132.718 94.6549 132.718 94.6549L133.283 94.3409Z" fill="black"/>
<path d="M70.2309 88.8593L70.5709 89.0093C70.7669 88.8593 70.9039 88.7033 70.9829 88.5493C70.9819 88.5483 70.9819 88.5473 70.9819 88.5473C70.9819 88.5473 70.9839 88.5473 70.9839 88.5453C71.0539 88.4073 71.0709 88.2723 71.0359 88.1483L71.0249 88.1183L71.0039 88.0943C70.9299 88.0093 70.8369 87.9523 70.7229 87.9243C70.6789 87.9133 70.6329 87.9043 70.5849 87.9023L69.8379 88.7043C69.8379 88.7043 69.8479 88.7093 69.8639 88.7203C69.8639 88.7313 69.8619 88.7393 69.8599 88.7423C69.8619 88.7383 69.8649 88.7333 69.8699 88.7273C69.8759 88.7323 69.8819 88.7373 69.8889 88.7443L69.9229 88.7233L70.2309 88.8593Z" fill="black"/>
<path d="M122.132 99.9287L122.322 100.178C122.775 99.9217 123.067 99.5747 123.099 99.2507L123.096 99.1907C123.052 99.0047 122.908 98.8867 122.682 98.8477L121.857 99.6397C121.86 99.6407 121.865 99.6407 121.867 99.6447C121.884 99.6497 121.896 99.6637 121.905 99.6857C121.9 99.7047 121.893 99.7167 121.89 99.7207C121.893 99.7177 121.9 99.7107 121.911 99.7017C121.912 99.7047 121.913 99.7107 121.914 99.7147L121.915 99.7127L121.916 99.7147L121.955 99.6967L122.132 99.9287Z" fill="black"/>
<path d="M107.833 92.9958V92.9948L108.164 92.5908L108.162 92.5918L107.74 92.5898L107.084 93.3978H107.267L107.503 93.3988L107.833 92.9958Z" fill="black"/>
<path d="M122.322 43.1858L121.807 43.5458C121.913 43.6128 122.05 43.6468 122.207 43.6508C122.207 43.6508 122.21 43.6498 122.212 43.6518C122.214 43.6508 122.215 43.6508 122.217 43.6508C122.219 43.6508 122.22 43.6508 122.22 43.6508C122.48 43.6558 122.796 43.5808 123.131 43.4278L123.19 43.3998C123.349 43.3178 123.773 43.1018 125.052 41.7028L124.587 41.6668L124.12 41.6328C123.507 42.3018 123.074 42.7068 122.899 42.8448C122.88 42.8478 122.862 42.8438 122.838 42.8258L122.322 43.1858Z" fill="black"/>
<path d="M64.8481 73.4045L64.8501 73.4015C65.0251 73.2525 65.1881 73.1005 65.3401 72.9485C65.5741 72.7105 65.7781 72.4695 65.9491 72.2315C65.9791 72.1895 66.0081 72.1485 66.0351 72.1055L65.5041 72.1505L64.9741 72.1975C64.9541 72.2275 64.9321 72.2595 64.9101 72.2915C64.6961 72.5905 64.4251 72.8795 64.0801 73.1745L64.8481 73.4045Z" fill="black"/>
<path d="M154.799 75.044C154.819 75.058 154.84 75.072 154.863 75.085C155.069 75.19 155.337 75.207 155.665 75.131L155.951 74.37L155.95 74.368C155.944 74.37 155.931 74.37 155.917 74.367C155.895 74.363 155.869 74.352 155.843 74.332L154.799 75.044Z" fill="black"/>
<path d="M135.795 46.0554C135.798 46.0524 135.8 46.0504 135.801 46.0474C135.847 45.9944 135.891 45.9444 135.924 45.9004V45.8984L134.893 45.9484C134.893 45.9484 134.891 45.9504 134.889 45.9514C134.877 45.9694 134.857 45.9904 134.839 46.0104C134.781 46.0784 134.707 46.1644 134.658 46.2544L135.75 46.1074C135.765 46.0914 135.779 46.0734 135.795 46.0554Z" fill="black"/>
<path d="M101.119 84.2725L101.176 84.2425L101.204 84.2975L101.328 84.2255L101.277 84.1875L102.161 83.7115C102.008 83.4715 101.554 83.4715 101.003 83.7095L100.896 83.7555L100.801 83.8185L101.011 83.9815L101.119 84.2725Z" fill="black"/>
<path d="M107.833 92.9958V92.9948L108.164 92.5908L108.162 92.5918L107.74 92.5898L107.084 93.3978H107.267L107.503 93.3988L107.833 92.9958Z" fill="black"/>
</mask>
<g mask="url(#mask0_1168_1354)">
<path d="M158.215 30.6979L32.6645 94.9709C32.4045 95.1039 32.3015 95.4239 32.4345 95.6839L46.8565 123.855C46.9885 124.115 47.3095 124.218 47.5685 124.085L173.12 59.8119C173.379 59.6789 173.483 59.3579 173.35 59.0979L158.928 30.9269C158.795 30.6689 158.476 30.5659 158.215 30.6979ZM171.9 59.0249L47.6435 122.635L33.8845 95.7579L158.141 32.1479L171.9 59.0249ZM156.548 27.4409L30.9965 91.7139C28.9375 92.7679 28.1245 95.2929 29.1775 97.3509L43.5985 125.522C44.6525 127.582 47.1765 128.396 49.2345 127.342L174.786 63.0689C176.845 62.0159 177.66 59.4919 176.606 57.4319L162.184 29.2619C161.13 27.2019 158.607 26.3879 156.548 27.4409ZM173.972 58.7809C174.28 59.3839 174.041 60.1259 173.438 60.4339L47.8865 124.707C47.2835 125.016 46.5425 124.776 46.2345 124.173L31.8125 96.0029C31.5045 95.3999 31.7435 94.6579 32.3465 94.3499L157.897 30.0779C158.499 29.7679 159.241 30.0079 159.549 30.6109L173.972 58.7809Z" fill="#FF8C00"/>
<path d="M65.9332 106.665L62.7722 102.888L58.3572 105.148L59.5732 109.922L56.4212 111.535L51.9082 92.3794L56.1832 90.1914L69.0962 105.046L65.9332 106.665ZM60.7512 100.397L57.8312 96.9214C57.6542 96.7094 57.2262 96.1704 56.5442 95.3064C55.8622 94.4414 55.4192 93.8554 55.2152 93.5514C55.4542 94.2674 55.7012 95.0644 55.9562 95.9424C56.2112 96.8214 56.7432 98.8514 57.5542 102.033L60.7512 100.397Z" fill="#FF8C00"/>
<path d="M74.4157 87.5234C75.3367 89.3234 75.5897 90.9364 75.1747 92.3614C74.7597 93.7894 73.6947 94.9404 71.9797 95.8184L71.1917 96.2214L74.3357 102.362L71.1837 103.975L62.5117 87.0364L66.8097 84.8354C70.1017 83.1524 72.6367 84.0484 74.4157 87.5234ZM69.7917 93.4874L70.3947 93.1794C71.1667 92.7834 71.6337 92.2764 71.7947 91.6584C71.9547 91.0394 71.7887 90.2484 71.2947 89.2824C70.8397 88.3934 70.3287 87.8234 69.7617 87.5734C69.1957 87.3234 68.5487 87.3834 67.8227 87.7554L67.0577 88.1464L69.7917 93.4874Z" fill="#FF8C00"/>
<path d="M86.3757 81.3988C87.2967 83.1988 87.5497 84.8118 87.1347 86.2368C86.7197 87.6648 85.6547 88.8168 83.9397 89.6938L83.1517 90.0968L86.2957 96.2378L83.1447 97.8518L74.4727 80.9128L78.7717 78.7118C82.0617 77.0268 84.5967 77.9228 86.3757 81.3988ZM81.7527 87.3628L82.3557 87.0548C83.1277 86.6588 83.5947 86.1518 83.7557 85.5338C83.9167 84.9148 83.7507 84.1238 83.2567 83.1578C82.8017 82.2688 82.2907 81.6988 81.7237 81.4478C81.1567 81.1988 80.5097 81.2588 79.7847 81.6298L79.0197 82.0208L81.7527 87.3628Z" fill="#FF8C00"/>
<path d="M94.8806 83.5233L98.2556 90.1163L95.1036 91.7293L86.4316 74.7903L90.5556 72.6793C92.3016 71.7853 93.8016 71.5393 95.0546 71.9403C96.3086 72.3423 97.3696 73.3923 98.2406 75.0913C99.3356 77.2313 99.3786 79.0963 98.3686 80.6853L105.427 86.4453L102.055 88.1713L96.0036 82.9483L94.8806 83.5233ZM93.4926 80.8123L94.3036 80.3973C95.0456 80.0173 95.4706 79.5343 95.5786 78.9463C95.6876 78.3593 95.5286 77.6483 95.1016 76.8143C94.6586 75.9493 94.1706 75.4223 93.6406 75.2303C93.1086 75.0393 92.4836 75.1273 91.7656 75.4953L90.9776 75.8983L93.4926 80.8123Z" fill="#FF8C00"/>
<path d="M114.87 70.893C116.305 73.698 116.884 76.121 116.604 78.164C116.324 80.208 115.208 81.732 113.254 82.732C111.292 83.736 109.4 83.756 107.581 82.791C105.762 81.827 104.128 79.932 102.681 77.103C101.246 74.299 100.67 71.881 100.956 69.849C101.241 67.816 102.372 66.294 104.35 65.282C106.304 64.282 108.187 64.265 109.999 65.235C111.812 66.202 113.435 68.089 114.87 70.893ZM105.914 75.478C106.902 77.409 107.899 78.756 108.903 79.519C109.908 80.281 110.882 80.422 111.824 79.94C113.724 78.967 113.662 76.503 111.637 72.548C109.612 68.593 107.658 67.099 105.773 68.064C104.815 68.554 104.351 69.427 104.38 70.685C104.411 71.941 104.922 73.539 105.914 75.478Z" fill="#FF8C00"/>
<path d="M120.536 57.332L123.711 55.707L128.397 74.687L124.388 76.739L111.754 61.828L114.928 60.203L122.439 69.417C123.09 70.195 123.934 71.357 124.969 72.903C124.415 71.423 123.973 70.055 123.643 68.8L120.536 57.332Z" fill="#FF8C00"/>
<path d="M142.106 67.6695L134.471 71.5785L125.799 54.6395L133.434 50.7305L134.828 53.4535L130.344 55.7495L132.408 59.7815L136.568 57.6515L137.967 60.3855L133.808 62.5155L136.21 67.2075L140.694 64.9115L142.106 67.6695Z" fill="#FF8C00"/>
<path d="M151.522 51.9545C152.954 54.7505 153.478 57.1795 153.096 59.2425C152.714 61.3035 151.453 62.8835 149.314 63.9785L145.166 66.1025L136.494 49.1635L141.024 46.8445C142.994 45.8355 144.9 45.7795 146.743 46.6745C148.585 47.5685 150.179 49.3285 151.522 51.9545ZM148.338 53.7015C146.4 49.9165 144.389 48.5575 142.303 49.6255L141.04 50.2715L146.906 61.7305L147.926 61.2085C149.077 60.6195 149.68 59.7035 149.737 58.4615C149.792 57.2185 149.326 55.6325 148.338 53.7015Z" fill="#FF8C00"/>
</g>
</svg>
