<svg width="1280" height="383" viewBox="0 0 1280 383" fill="none" xmlns="http://www.w3.org/2000/svg">
<path d="M727.651 245.977L696.992 277.283L722.5 261.5L739.674 231L748.5 220.038L763.5 231H785.949H824.5L843.5 222.863H871.5L908 194.007L940.5 170L974.5 175L999 164L1034.5 174.826H1062L1069 158.874L1095 144.031L1128.5 121L1157.5 101.295L1192 89L1215.04 56.5L1238 68L1262 37.0215L1280 20.3311V0L1270.54 10.7256L1252.56 20.3311L1242.83 22.5127L1227.74 37.0215L1215.04 40.0859L1200.55 47.2607L1174.64 73.5742L1151.23 101.295L1135.79 113.046L1111.44 127.448L1077.36 144.031L1056.01 139.654L1026.08 158.579L992.055 139.372L972.211 158.874L954.052 161.416L923.42 174.826L884.939 199.16L875.811 194.007L831.746 222.863L785.949 220.038L770.633 226.744L754.865 217.843L739.674 219.503L727.651 245.977Z" fill="#EDEBE8"/>
<path d="M35.7461 130.587L27.7021 138.283L38.5 136.5L61 134L79 115H108L130.5 108L142 97.8847L132.093 101.681L104.776 103.409L76.0986 108.57L62.7354 117.09L52.1611 126.968L35.7461 130.587Z" fill="#EDEBE8"/>
<path d="M171.083 83.0996L147.793 95.665L142 97.8847L178 88.3936L220 79.3145L202.418 62.8369L171.083 83.0996Z" fill="#EDEBE8"/>
<path d="M502.028 164.477L486.753 171.084L516.311 178.996L521.5 211.5L537.5 223.354L552.5 235.5L568 226.744L574 217.843L589 202.5L607 199.16L613.819 208.5L626.5 211.5L637 231L651.5 226.744L669.5 239.371L645.395 206.13L643.369 223.354L631.84 199.951L622.192 204.124L613.819 184.039L603.558 178.996L598.944 150.173L554.195 227.255L526.552 194.17L516.311 167.78L502.028 164.477Z" fill="#EDEBE8"/>
<path d="M10.8682 148.333L0 149.383V382.5H1280V20.3311L1262 37.0215L1238 68L1215.04 56.5L1192 89L1157.5 101.295L1128.5 121L1095 144.031L1069 158.874L1062 174.826H1034.5L999 164L974.5 175L940.5 170L908 194.007L871.5 222.863H843.5L824.5 231H785.949H763.5L748.5 220.038L739.674 231L722.5 261.5L696.992 277.283L669.5 239.371L651.5 226.744L637 231L626.5 211.5L613.819 208.5L607 199.16L589 202.5L574 217.843L568 226.744L552.5 235.5L537.5 223.354L521.5 211.5L516.311 178.996L486.753 171.084L472.565 162.998L429.176 160.432L388.763 128.13L379.919 131.955L344.591 104.566L316.214 88.3936L299.165 83.916L270.5 68.2646L247 72.3955L220 79.3145L178 88.3936L142 97.8847L130.5 108L108 115H79L61 134L38.5 136.5L27.7021 138.283L10.8682 148.333Z" fill="#F9F7F4"/>
</svg>
