<svg width="1304" height="437" viewBox="0 0 1304 437" fill="none" xmlns="http://www.w3.org/2000/svg">
<g filter="url(#filter0_d_970_169)">
<path d="M1282.54 157.449L1292 146.723L1271.25 135.011L1258.05 158.26L1248.79 158.154L1236.19 174.068L1212.1 178.377L1196.76 202.978L1179.05 221.128L1172.51 230.23L1167.53 227.418L1154.8 248.379L1140.09 247.75L1122.38 265.9L1110.89 254.294L1103.27 273.019L1081.19 281.024L1051.99 287.568L1036.1 283.713L1022.21 283.553L1010.47 282.039L986.123 296.441L983.885 284.943L974.855 292.639L946.864 284.514L934.516 290.337L927.877 286.588L923.349 299.385L905.543 304.685L898.073 300.469L887.006 322.366L879.538 318.149L868.622 317.105L858.79 306.437L848.83 300.816L810 340.73L771.5 311.2L708.992 340.73L647.5 312.944L625.82 265.9L598.445 233.672L588.5 278.679L563.569 257.251L514.028 254.726L475.991 264.116L451.622 222.032L439.28 241.596L429.632 245.77L419.891 254.726L409.534 254.464L402.298 257.595L392.768 235.639L385.532 238.77L368.932 231.727L365.195 219.119L358.764 221.901L347.343 214.988L320.552 219.466L312.346 211.163L309.746 221.77L287.352 205.38L276.191 205.467L263.067 204.032L247.887 205.857L220.575 196.336L197.743 209.638L185.413 202.952L180.94 222.632L161.281 226.038L150.514 240.603L133.579 237.139L130.855 244.009L122.744 243.475L103.085 246.881L82.9054 243.202L63.3802 263.066L48.3266 263.25L41.451 272.197L23.3471 267.481L12 296.106L22.8683 295.056L39.7025 285.007L47.746 277.311L64.1611 273.691L74.7349 263.813L88.0989 255.294L116.777 250.132L144.093 248.404L159.793 242.389L183.083 229.823L214.418 209.56L232 226.038L259 219.119L282.5 214.988L311.165 230.639L328.214 235.117L356.59 251.29L391.919 278.679L400.763 274.854L441.175 307.155L484.565 309.721L498.753 317.808L514.028 311.2L528.311 314.504L538.551 340.894L566.195 373.978L610.944 296.896L615.557 325.72L625.82 330.762L634.192 350.847L643.84 346.675L655.369 370.078L657.395 352.854L708.992 424.007L739.651 392.7L751.674 366.226L766.865 364.566L782.633 373.467L797.949 366.762L843.746 369.587L887.81 340.73L896.939 345.884L935.42 321.55L966.052 308.14L984.211 305.597L1004.05 286.096L1038.08 305.302L1068.01 286.378L1089.36 290.755L1123.44 274.172L1147.79 259.77L1163.23 248.018L1186.64 220.298L1212.55 193.984L1227.04 186.809L1239.74 183.745L1254.83 169.237L1264.56 167.055L1282.54 157.449Z" fill="#EDEBE8"/>
<path d="M12 296.106L23.3471 267.481L41.451 272.197L48.3266 263.25L63.3802 263.066L82.9054 243.202L103.085 246.881L122.744 243.475L130.855 244.009L133.579 237.139L150.514 240.603L161.281 226.038L180.94 222.632L185.413 202.952L197.743 209.638L220.575 196.336L247.887 205.857L263.067 204.032L276.191 205.467L287.352 205.38L309.746 221.77L312.346 211.163L320.552 219.466L347.343 214.988L358.764 221.901L365.195 219.119L368.932 231.727L385.532 238.77L392.768 235.639L402.298 257.595L409.534 254.464L419.891 254.726L429.632 245.77L439.28 241.596L451.622 222.032L475.991 264.116L514.028 254.726L563.569 257.251L588.5 278.679L598.445 233.672L625.82 265.9L647.5 312.944L708.992 340.73L771.5 311.2L810 340.73L848.83 300.816L858.79 306.437L868.622 317.105L879.538 318.149L887.006 322.366L898.073 300.469L905.543 304.685L923.349 299.385L927.877 286.588L934.516 290.337L946.864 284.514L974.855 292.639L983.885 284.943L986.123 296.441L1010.47 282.039L1022.21 283.553L1036.1 283.713L1051.99 287.568L1081.19 281.024L1103.27 273.019L1110.89 254.294L1122.38 265.9L1140.09 247.75L1154.8 248.379L1167.53 227.418L1172.51 230.23L1179.05 221.128L1196.76 202.978L1212.1 178.377L1236.19 174.068L1248.79 158.154L1258.05 158.26L1271.25 135.011L1292 146.723L1292.01 11H12.0078L12 296.106Z" fill="#F9F7F4"/>
</g>
<defs>
<filter id="filter0_d_970_169" x="0" y="0" width="1304.01" height="437.008" filterUnits="userSpaceOnUse" color-interpolation-filters="sRGB">
<feFlood flood-opacity="0" result="BackgroundImageFix"/>
<feColorMatrix in="SourceAlpha" type="matrix" values="0 0 0 0 0 0 0 0 0 0 0 0 0 0 0 0 0 0 127 0" result="hardAlpha"/>
<feOffset dy="1"/>
<feGaussianBlur stdDeviation="6"/>
<feColorMatrix type="matrix" values="0 0 0 0 0 0 0 0 0 0 0 0 0 0 0 0 0 0 0.3 0"/>
<feBlend mode="normal" in2="BackgroundImageFix" result="effect1_dropShadow_970_169"/>
<feBlend mode="normal" in="SourceGraphic" in2="effect1_dropShadow_970_169" result="shape"/>
</filter>
</defs>
</svg>
